<?xml version="1.0" encoding="UTF-8"?>
<!DOCTYPE svg PUBLIC "-//W3C//DTD SVG 1.1//EN" "http://www.w3.org/Graphics/SVG/1.1/DTD/svg11.dtd">
<svg xmlns="http://www.w3.org/2000/svg" version="1.1" width="225px" height="225px" style="shape-rendering:geometricPrecision; text-rendering:geometricPrecision; image-rendering:optimizeQuality; fill-rule:evenodd; clip-rule:evenodd" xmlns:xlink="http://www.w3.org/1999/xlink">
<g><path style="opacity:1" fill="#fdfdfd" d="M -0.5,-0.5 C 74.5,-0.5 149.5,-0.5 224.5,-0.5C 224.5,74.5 224.5,149.5 224.5,224.5C 149.5,224.5 74.5,224.5 -0.5,224.5C -0.5,149.5 -0.5,74.5 -0.5,-0.5 Z"/></g>
<g><path style="opacity:1" fill="#7ca1f7" d="M 82.5,43.5 C 81.7215,46.6344 80.0548,49.3011 77.5,51.5C 71.6275,49.9978 67.9608,52.3311 66.5,58.5C 66.8481,60.6967 67.8481,62.53 69.5,64C 67.0232,65.6427 64.6898,67.476 62.5,69.5C 60.9733,67.8067 59.6399,65.9734 58.5,64C 62.5833,61.1399 62.25,58.8065 57.5,57C 58.2598,55.5589 58.9264,54.0589 59.5,52.5C 61.5547,51.8128 63.2214,50.6461 64.5,49C 63.4829,47.9505 63.3162,46.7839 64,45.5C 66.1178,43.637 68.2845,42.9704 70.5,43.5C 71.2039,45.3442 72.5372,45.8442 74.5,45C 75.0712,43.7949 75.7379,42.6283 76.5,41.5C 78.4496,42.3721 80.4496,43.0388 82.5,43.5 Z"/></g>
<g><path style="opacity:1" fill="#cbd3eb" d="M 82.5,43.5 C 80.4496,43.0388 78.4496,42.3721 76.5,41.5C 75.7379,42.6283 75.0712,43.7949 74.5,45C 72.5372,45.8442 71.2039,45.3442 70.5,43.5C 73.0312,42.9697 75.0312,41.6363 76.5,39.5C 78.1151,40.154 79.7818,40.654 81.5,41C 82.2524,41.6708 82.5858,42.5041 82.5,43.5 Z"/></g>
<g><path style="opacity:1" fill="#d8e4fb" d="M 97.5,40.5 C 102.637,41.7824 103.97,44.6158 101.5,49C 96.5266,51.4339 94.0266,49.9339 94,44.5C 94.5831,46.0016 95.4164,47.3349 96.5,48.5C 97.6956,48.1543 97.6956,47.6543 96.5,47C 97.624,46.7508 98.624,46.2508 99.5,45.5C 97.222,44.7847 95.8887,43.618 95.5,42C 96.4158,41.7216 97.0825,41.2216 97.5,40.5 Z"/></g>
<g><path style="opacity:1" fill="#81a6fb" d="M 89.5,52.5 C 87.1667,52.5 84.8333,52.5 82.5,52.5C 85.3753,46.4957 87.7086,46.4957 89.5,52.5 Z"/></g>
<g><path style="opacity:1" fill="#e2ebf0" d="M 184.5,81.5 C 182.484,82.4564 180.651,83.7898 179,85.5C 178.53,86.5768 178.697,87.5768 179.5,88.5C 181.607,89.4682 183.941,89.8016 186.5,89.5C 186.5,97.8333 186.5,106.167 186.5,114.5C 185.348,113.375 184.348,113.375 183.5,114.5C 180.739,116.212 177.739,117.378 174.5,118C 171.832,127.815 175.165,134.649 184.5,138.5C 184.666,144.509 184.499,150.509 184,156.5C 183.5,158.333 182.333,159.5 180.5,160C 178.19,160.497 175.857,160.663 173.5,160.5C 174.339,156.145 175.339,151.811 176.5,147.5C 176.392,146.558 176.059,145.725 175.5,145C 163.326,144.174 151.326,144.34 139.5,145.5C 135.931,147.119 132.264,148.452 128.5,149.5C 127.5,149.5 126.5,149.5 125.5,149.5C 125.5,146.5 125.5,143.5 125.5,140.5C 129.146,139.538 130.313,137.205 129,133.5C 128.184,132.177 127.017,131.511 125.5,131.5C 125.831,124.137 125.497,116.803 124.5,109.5C 123.914,109.709 123.414,110.043 123,110.5C 121.052,109.891 119.218,109.224 117.5,108.5C 121.514,108.666 125.514,108.499 129.5,108C 130.747,106.542 130.747,105.042 129.5,103.5C 128.051,102.828 126.718,102.161 125.5,101.5C 125.333,85.4965 125.5,69.4965 126,53.5C 126.5,51.6667 127.667,50.5 129.5,50C 147.258,49.028 164.924,49.3613 182.5,51C 183.5,52 184.5,53 185.5,54C 184.515,63.0828 184.182,72.2494 184.5,81.5 Z"/></g>
<g><path style="opacity:1" fill="#f73873" d="M 82.5,52.5 C 84.8333,52.5 87.1667,52.5 89.5,52.5C 99.1667,52.5 108.833,52.5 118.5,52.5C 118.5,54.1667 118.5,55.8333 118.5,57.5C 105.167,57.5 91.8333,57.5 78.5,57.5C 78.5,55.8333 78.5,54.1667 78.5,52.5C 79.8333,52.5 81.1667,52.5 82.5,52.5 Z"/></g>
<g><path style="opacity:1" fill="#989f9e" d="M 78.5,57.5 C 91.8333,57.5 105.167,57.5 118.5,57.5C 118.5,64.1667 118.5,70.8333 118.5,77.5C 105.167,77.5 91.8333,77.5 78.5,77.5C 78.5,75.8333 78.5,74.1667 78.5,72.5C 78.8016,69.9407 78.4682,67.6074 77.5,65.5C 78.388,62.9455 78.7214,60.2788 78.5,57.5 Z"/></g>
<g><path style="opacity:1" fill="#bdab6b" d="M 102.5,60.5 C 106.226,60.1774 109.893,60.5108 113.5,61.5C 111.667,61.8333 109.833,62.1667 108,62.5C 105.705,62.4535 103.871,61.7868 102.5,60.5 Z"/></g>
<g><path style="opacity:1" fill="#bbaa6d" d="M 92.5,63.5 C 95.2469,63.1866 97.9135,63.52 100.5,64.5C 99.1667,64.8333 97.8333,65.1667 96.5,65.5C 94.6672,65.4146 93.3339,64.7479 92.5,63.5 Z"/></g>
<g><path style="opacity:1" fill="#7da1f5" d="M 77.5,65.5 C 78.4682,67.6074 78.8016,69.9407 78.5,72.5C 75.5371,72.1507 73.2038,73.1507 71.5,75.5C 69.4128,75.4607 68.0794,74.4607 67.5,72.5C 68.6469,67.0172 71.9802,64.6839 77.5,65.5 Z"/></g>
<g><path style="opacity:1" fill="#bfac69" d="M 100.5,66.5 C 104.555,66.1758 108.555,66.5091 112.5,67.5C 110.5,67.8333 108.5,68.1667 106.5,68.5C 104.048,68.4609 102.048,67.7943 100.5,66.5 Z"/></g>
<g><path style="opacity:1" fill="#beac6b" d="M 104.5,69.5 C 107.572,69.1826 110.572,69.5159 113.5,70.5C 112,70.8333 110.5,71.1667 109,71.5C 107.014,71.4313 105.514,70.7647 104.5,69.5 Z"/></g>
<g><path style="opacity:1" fill="#c6af63" d="M 102.5,72.5 C 104.288,72.2148 105.955,72.5481 107.5,73.5C 106.667,73.8333 105.833,74.1667 105,74.5C 103.624,74.3158 102.791,73.6491 102.5,72.5 Z"/></g>
<g><path style="opacity:1" fill="#522daa" d="M 56.5,107.5 C 56.5,110.5 56.5,113.5 56.5,116.5C 54.1998,118.202 51.5331,118.868 48.5,118.5C 47.8333,102.5 47.1667,102.5 46.5,118.5C 43.4669,118.868 40.8002,118.202 38.5,116.5C 38.5,113.5 38.5,110.5 38.5,107.5C 37.9436,101.492 37.277,95.4916 36.5,89.5C 37.4052,86.0179 39.0719,83.0179 41.5,80.5C 46.0863,81.3698 50.5863,81.7031 55,81.5C 56.4445,84.0546 57.6112,86.7213 58.5,89.5C 57.723,95.4916 57.0564,101.492 56.5,107.5 Z"/></g>
<g><path style="opacity:1" fill="#f02e6d" d="M 184.5,81.5 C 186.558,82.9331 188.892,83.5997 191.5,83.5C 191.923,85.7812 191.256,87.4479 189.5,88.5C 186.167,88.5 182.833,88.5 179.5,88.5C 178.697,87.5768 178.53,86.5768 179,85.5C 180.651,83.7898 182.484,82.4564 184.5,81.5 Z"/></g>
<g><path style="opacity:1" fill="#291d19" d="M 99.5,97.5 C 94.2665,99.1417 88.9332,100.475 83.5,101.5C 84.01,104.539 84.6766,107.539 85.5,110.5C 83.8583,108.919 81.8583,108.253 79.5,108.5C 78.6056,105.989 77.6056,103.489 76.5,101C 76.8829,98.0362 77.8829,95.3695 79.5,93C 85.5769,90.0807 91.9102,88.4141 98.5,88C 100.839,90.8873 101.172,94.054 99.5,97.5 Z"/></g>
<g><path style="opacity:1" fill="#feaf1d" d="M 152.5,88.5 C 154.527,88.3379 156.527,88.5045 158.5,89C 161.008,91.6896 163.008,94.6896 164.5,98C 167.596,98.9267 169.93,97.9267 171.5,95C 174.217,93.967 176.051,94.8003 177,97.5C 177.499,101.152 177.665,104.818 177.5,108.5C 162.5,108.5 147.5,108.5 132.5,108.5C 132.5,104.833 132.5,101.167 132.5,97.5C 136.134,99.0157 139.801,100.182 143.5,101C 145.897,96.3625 148.897,92.1958 152.5,88.5 Z"/></g>
<g><path style="opacity:1" fill="#b1b2b8" d="M 179.5,88.5 C 182.833,88.5 186.167,88.5 189.5,88.5C 187.572,97.2348 186.905,106.235 187.5,115.5C 186.833,115.5 186.5,115.167 186.5,114.5C 186.5,106.167 186.5,97.8333 186.5,89.5C 183.941,89.8016 181.607,89.4682 179.5,88.5 Z"/></g>
<g><path style="opacity:1" fill="#eeeef0" d="M 45.5,92.5 C 52.8211,93.3193 54.1545,96.486 49.5,102C 44.6667,102.5 42.5,100.333 43,95.5C 43.6979,94.3094 44.5313,93.3094 45.5,92.5 Z"/></g>
<g><path style="opacity:1" fill="#7a9ced" d="M 125.5,101.5 C 126.718,102.161 128.051,102.828 129.5,103.5C 130.747,105.042 130.747,106.542 129.5,108C 125.514,108.499 121.514,108.666 117.5,108.5C 116.522,108.189 115.855,107.522 115.5,106.5C 117.644,101.945 120.977,100.279 125.5,101.5 Z"/></g>
<g><path style="opacity:1" fill="#ddb4af" d="M 99.5,97.5 C 99.5,98.8333 99.5,100.167 99.5,101.5C 103.487,101.652 104.987,103.652 104,107.5C 103.517,106.552 103.351,105.552 103.5,104.5C 102.5,104.5 101.5,104.5 100.5,104.5C 101.38,106.611 101.38,108.611 100.5,110.5C 96.6369,113.198 92.3036,114.031 87.5,113C 86.9341,112.005 86.2674,111.172 85.5,110.5C 84.6766,107.539 84.01,104.539 83.5,101.5C 88.9332,100.475 94.2665,99.1417 99.5,97.5 Z"/></g>
<g><path style="opacity:1" fill="#f53671" d="M 56.5,107.5 C 65.2244,110.243 68.5577,116.243 66.5,125.5C 65.325,125.719 64.325,125.386 63.5,124.5C 61.8309,121.17 59.4975,118.503 56.5,116.5C 56.5,113.5 56.5,110.5 56.5,107.5 Z"/></g>
<g><path style="opacity:1" fill="#f0c3bc" d="M 79.5,108.5 C 81.8583,108.253 83.8583,108.919 85.5,110.5C 85.5,112.167 85.5,113.833 85.5,115.5C 80.0187,116.345 78.0187,114.012 79.5,108.5 Z"/></g>
<g><path style="opacity:1" fill="#f53772" d="M 38.5,107.5 C 38.5,110.5 38.5,113.5 38.5,116.5C 35.5025,118.503 33.1691,121.17 31.5,124.5C 30.1667,125.833 28.8333,125.833 27.5,124.5C 28.1706,120.474 29.0039,116.474 30,112.5C 32.3575,109.909 35.1908,108.242 38.5,107.5 Z"/></g>
<g><path style="opacity:1" fill="#2a1e1b" d="M 85.5,110.5 C 86.2674,111.172 86.9341,112.005 87.5,113C 92.3036,114.031 96.6369,113.198 100.5,110.5C 103.071,113.82 103.071,117.32 100.5,121C 98.6547,122.128 96.6547,122.628 94.5,122.5C 91.4867,122.893 88.8201,122.226 86.5,120.5C 86.7678,118.901 86.4345,117.568 85.5,116.5C 85.5,116.167 85.5,115.833 85.5,115.5C 85.5,113.833 85.5,112.167 85.5,110.5 Z"/></g>
<g><path style="opacity:1" fill="#522ca8" d="M 183.5,114.5 C 186.57,117.287 189.904,118.62 193.5,118.5C 194.641,121.64 194.808,124.973 194,128.5C 192.389,131.938 190.223,134.938 187.5,137.5C 186.508,137.328 185.842,137.662 185.5,138.5C 185.167,138.5 184.833,138.5 184.5,138.5C 175.165,134.649 171.832,127.815 174.5,118C 177.739,117.378 180.739,116.212 183.5,114.5 Z"/></g>
<g><path style="opacity:1" fill="#8b73c5" d="M 183.5,114.5 C 184.348,113.375 185.348,113.375 186.5,114.5C 186.5,115.167 186.833,115.5 187.5,115.5C 189.574,116.514 191.574,117.514 193.5,118.5C 189.904,118.62 186.57,117.287 183.5,114.5 Z"/></g>
<g><path style="opacity:1" fill="#e66293" d="M 48.5,118.5 C 47.8333,127.833 47.1667,127.833 46.5,118.5C 47.1667,102.5 47.8333,102.5 48.5,118.5 Z"/></g>
<g><path style="opacity:1" fill="#fbc4b7" d="M 85.5,116.5 C 86.4345,117.568 86.7678,118.901 86.5,120.5C 87.7968,124.158 90.4635,125.824 94.5,125.5C 96.7156,132.082 94.3823,134.249 87.5,132C 84.9256,129.682 83.259,126.849 82.5,123.5C 82.9348,120.843 83.9348,118.509 85.5,116.5 Z"/></g>
<g><path style="opacity:1" fill="#de574c" d="M 86.5,120.5 C 88.8201,122.226 91.4867,122.893 94.5,122.5C 94.5,123.167 94.5,123.833 94.5,124.5C 94.5,124.833 94.5,125.167 94.5,125.5C 90.4635,125.824 87.7968,124.158 86.5,120.5 Z"/></g>
<g><path style="opacity:1" fill="#feae17" d="M 82.5,123.5 C 83.259,126.849 84.9256,129.682 87.5,132C 94.3823,134.249 96.7156,132.082 94.5,125.5C 94.5,125.167 94.5,124.833 94.5,124.5C 97.5,125.833 100.5,127.167 103.5,128.5C 103.5,135.5 103.5,142.5 103.5,149.5C 100.569,151.091 97.9024,153.091 95.5,155.5C 93.0984,155.963 90.765,155.296 88.5,153.5C 84.0901,156.372 79.4235,158.705 74.5,160.5C 75.3686,158.283 75.702,155.95 75.5,153.5C 77.1755,148.065 77.6755,142.398 77,136.5C 75.8761,132.538 73.3761,130.205 69.5,129.5C 73.9531,127.774 78.2864,125.774 82.5,123.5 Z"/></g>
<g><path style="opacity:1" fill="#ff6d3a" d="M 44.5,126.5 C 47.3646,126.055 49.8646,126.722 52,128.5C 51.7496,131.974 50.2496,134.974 47.5,137.5C 45.5879,135.343 43.9213,133.009 42.5,130.5C 42.7517,128.927 43.4183,127.594 44.5,126.5 Z"/></g>
<g><path style="opacity:1" fill="#8b74c5" d="M 189.5,122.5 C 190.239,122.369 190.906,122.536 191.5,123C 189,125.5 186.5,128 184,130.5C 182.5,129 181,127.5 179.5,126C 181.387,125.837 182.887,126.671 184,128.5C 186.04,126.63 187.873,124.63 189.5,122.5 Z"/></g>
<g><path style="opacity:1" fill="#f79732" d="M 103.5,128.5 C 105.708,129.894 107.208,131.894 108,134.5C 109.607,139.154 111.107,143.82 112.5,148.5C 109.713,149.477 106.713,149.81 103.5,149.5C 103.5,142.5 103.5,135.5 103.5,128.5 Z"/></g>
<g><path style="opacity:1" fill="#fd9732" d="M 69.5,129.5 C 73.3761,130.205 75.8761,132.538 77,136.5C 77.6755,142.398 77.1755,148.065 75.5,153.5C 75.631,152.761 75.4643,152.094 75,151.5C 73.2308,155.474 71.8975,159.474 71,163.5C 72.5185,162.837 73.6851,161.837 74.5,160.5C 79.4235,158.705 84.0901,156.372 88.5,153.5C 90.765,155.296 93.0984,155.963 95.5,155.5C 96.0787,158.331 97.412,160.664 99.5,162.5C 98.2185,165.16 96.8852,167.827 95.5,170.5C 95.5654,170.062 95.3988,169.728 95,169.5C 88.7581,173.512 82.2581,176.846 75.5,179.5C 70.1563,179.666 64.8229,179.499 59.5,179C 57.2911,177.127 55.4578,174.96 54,172.5C 53.5694,168.616 53.7361,164.616 54.5,160.5C 56.1054,159.994 56.4387,159.327 55.5,158.5C 57.6271,149.952 60.4605,141.619 64,133.5C 65.4321,131.561 67.2654,130.228 69.5,129.5 Z"/></g>
<g><path style="opacity:1" fill="#fdb12a" d="M 125.5,131.5 C 127.017,131.511 128.184,132.177 129,133.5C 130.313,137.205 129.146,139.538 125.5,140.5C 120.818,140.125 119.484,137.792 121.5,133.5C 122.577,132.295 123.91,131.628 125.5,131.5 Z"/></g>
<g><path style="opacity:1" fill="#bbbbc0" d="M 185.5,138.5 C 185.842,137.662 186.508,137.328 187.5,137.5C 187.666,144.508 187.5,151.508 187,158.5C 186.576,160.615 185.409,161.448 183.5,161C 184.701,160.097 185.535,158.931 186,157.5C 186.82,150.986 186.653,144.653 185.5,138.5 Z"/></g>
<g><path style="opacity:1" fill="#939798" d="M 173.5,160.5 C 172.077,165.327 170.411,170.161 168.5,175C 169.337,176.011 169.67,177.178 169.5,178.5C 169.167,178.5 168.833,178.5 168.5,178.5C 150.197,176.513 131.53,175.846 112.5,176.5C 118.645,175.51 124.978,175.177 131.5,175.5C 131.805,172.586 131.805,169.919 131.5,167.5C 132.942,166.18 133.608,164.514 133.5,162.5C 135.091,156.73 137.091,151.063 139.5,145.5C 151.326,144.34 163.326,144.174 175.5,145C 176.059,145.725 176.392,146.558 176.5,147.5C 175.339,151.811 174.339,156.145 173.5,160.5 Z"/></g>
<g><path style="opacity:1" fill="#f7c5bb" d="M 112.5,148.5 C 113.401,149.29 114.068,150.29 114.5,151.5C 107.317,150.824 106.484,151.824 112,154.5C 112.982,155.759 113.315,157.092 113,158.5C 112.667,158.167 112.333,157.833 112,157.5C 111.005,159.161 109.672,160.495 108,161.5C 106.003,160.34 104.169,160.34 102.5,161.5C 101.609,162.11 100.609,162.443 99.5,162.5C 97.412,160.664 96.0787,158.331 95.5,155.5C 97.9024,153.091 100.569,151.091 103.5,149.5C 106.713,149.81 109.713,149.477 112.5,148.5 Z"/></g>
<g><path style="opacity:1" fill="#ff6b33" d="M 125.5,149.5 C 126.5,149.5 127.5,149.5 128.5,149.5C 124.535,153.595 124.535,157.761 128.5,162C 130.134,162.494 131.801,162.66 133.5,162.5C 133.608,164.514 132.942,166.18 131.5,167.5C 126.844,169.16 122.177,170.826 117.5,172.5C 117.937,170.926 118.937,169.759 120.5,169C 123,168.115 125.333,166.948 127.5,165.5C 122.807,161.088 121.807,156.088 124.5,150.5C 124.5,149.833 124.833,149.5 125.5,149.5 Z"/></g>
<g><path style="opacity:1" fill="#f1c2bc" d="M 139.5,145.5 C 137.091,151.063 135.091,156.73 133.5,162.5C 131.801,162.66 130.134,162.494 128.5,162C 124.535,157.761 124.535,153.595 128.5,149.5C 132.264,148.452 135.931,147.119 139.5,145.5 Z"/></g>
<g><path style="opacity:1" fill="#fd9834" d="M 124.5,150.5 C 121.807,156.088 122.807,161.088 127.5,165.5C 125.333,166.948 123,168.115 120.5,169C 118.937,169.759 117.937,170.926 117.5,172.5C 114.098,174.547 110.431,174.881 106.5,173.5C 105.392,170.941 104.059,168.608 102.5,166.5C 102.5,164.833 102.5,163.167 102.5,161.5C 104.169,160.34 106.003,160.34 108,161.5C 109.672,160.495 111.005,159.161 112,157.5C 112.333,157.833 112.667,158.167 113,158.5C 113.315,157.092 112.982,155.759 112,154.5C 106.484,151.824 107.317,150.824 114.5,151.5C 114.281,152.675 114.614,153.675 115.5,154.5C 118.404,152.88 121.404,151.547 124.5,150.5 Z"/></g>
<g><path style="opacity:1" fill="#ff6d31" d="M 75.5,153.5 C 75.702,155.95 75.3686,158.283 74.5,160.5C 73.6851,161.837 72.5185,162.837 71,163.5C 71.8975,159.474 73.2308,155.474 75,151.5C 75.4643,152.094 75.631,152.761 75.5,153.5 Z"/></g>
<g><path style="opacity:1" fill="#68c8aa" d="M 55.5,158.5 C 56.4387,159.327 56.1054,159.994 54.5,160.5C 51.1667,162.833 47.8333,165.167 44.5,167.5C 43.3328,163.853 41.1662,160.853 38,158.5C 36.8495,156.246 36.5162,153.913 37,151.5C 39.6153,155.783 42.6153,159.783 46,163.5C 48.2854,160.108 51.452,158.441 55.5,158.5 Z"/></g>
<g><path style="opacity:1" fill="#f7f7f8" d="M 153.5,157.5 C 156.076,157.722 156.91,159.055 156,161.5C 154.644,162.38 153.144,162.714 151.5,162.5C 151.392,160.486 152.058,158.82 153.5,157.5 Z"/></g>
<g><path style="opacity:1" fill="#f8aa14" d="M 102.5,161.5 C 102.5,163.167 102.5,164.833 102.5,166.5C 101.597,169.391 101.264,172.391 101.5,175.5C 100.566,176.568 100.232,177.901 100.5,179.5C 94.1667,179.5 87.8333,179.5 81.5,179.5C 86.5064,176.999 91.1731,173.999 95.5,170.5C 96.8852,167.827 98.2185,165.16 99.5,162.5C 100.609,162.443 101.609,162.11 102.5,161.5 Z"/></g>
<g><path style="opacity:1" fill="#ffdfe7" d="M 188.5,162.5 C 194.62,164.073 196.453,167.74 194,173.5C 188.453,176.649 184.619,175.149 182.5,169C 182.905,168.055 183.572,167.388 184.5,167C 184.167,166.667 183.833,166.333 183.5,166C 185.146,164.245 186.813,163.078 188.5,162.5 Z"/></g>
<g><path style="opacity:1" fill="#6ac4a6" d="M 44.5,167.5 C 44.5,167.833 44.5,168.167 44.5,168.5C 41.7594,168.707 39.4261,169.707 37.5,171.5C 35.1644,173.004 33.331,175.004 32,177.5C 31.652,173.81 33.152,170.977 36.5,169C 39.2061,167.475 41.8728,166.975 44.5,167.5 Z"/></g>
<g><path style="opacity:1" fill="#fcf7f4" d="M 102.5,166.5 C 104.059,168.608 105.392,170.941 106.5,173.5C 110.431,174.881 114.098,174.547 117.5,172.5C 122.177,170.826 126.844,169.16 131.5,167.5C 131.805,169.919 131.805,172.586 131.5,175.5C 124.978,175.177 118.645,175.51 112.5,176.5C 112.5,177.167 112.5,177.833 112.5,178.5C 108.833,178.5 105.167,178.5 101.5,178.5C 101.5,177.5 101.5,176.5 101.5,175.5C 101.264,172.391 101.597,169.391 102.5,166.5 Z"/></g>
<g><path style="opacity:1" fill="#c67d32" d="M 44.5,168.5 C 47.2469,168.187 49.9135,168.52 52.5,169.5C 52.1373,170.183 51.8039,170.85 51.5,171.5C 47.2147,172.295 42.8814,172.628 38.5,172.5C 37.8333,172.5 37.5,172.167 37.5,171.5C 39.4261,169.707 41.7594,168.707 44.5,168.5 Z"/></g>
<g><path style="opacity:1" fill="#fb962e" d="M 51.5,171.5 C 50.9084,174.127 50.5751,176.794 50.5,179.5C 46.1726,179.984 42.1726,179.318 38.5,177.5C 38.5,175.833 38.5,174.167 38.5,172.5C 42.8814,172.628 47.2147,172.295 51.5,171.5 Z"/></g>
<g><path style="opacity:1" fill="#f96a2e" d="M 95.5,170.5 C 91.1731,173.999 86.5064,176.999 81.5,179.5C 79.5,179.5 77.5,179.5 75.5,179.5C 82.2581,176.846 88.7581,173.512 95,169.5C 95.3988,169.728 95.5654,170.062 95.5,170.5 Z"/></g>
<g><path style="opacity:1" fill="#2b2c37" d="M 112.5,176.5 C 131.53,175.846 150.197,176.513 168.5,178.5C 149.931,179.825 131.264,179.825 112.5,178.5C 112.5,177.833 112.5,177.167 112.5,176.5 Z"/></g>
<g><path style="opacity:1" fill="#dedddd" d="M 54.5,160.5 C 53.7361,164.616 53.5694,168.616 54,172.5C 55.4578,174.96 57.2911,177.127 59.5,179C 64.8229,179.499 70.1563,179.666 75.5,179.5C 77.5,179.5 79.5,179.5 81.5,179.5C 87.8333,179.5 94.1667,179.5 100.5,179.5C 100.232,177.901 100.566,176.568 101.5,175.5C 101.5,176.5 101.5,177.5 101.5,178.5C 105.167,178.5 108.833,178.5 112.5,178.5C 131.264,179.825 149.931,179.825 168.5,178.5C 168.833,178.5 169.167,178.5 169.5,178.5C 178.682,178.173 187.682,178.507 196.5,179.5C 195.833,179.5 195.5,179.833 195.5,180.5C 139.833,180.5 84.1667,180.5 28.5,180.5C 28.5,179.833 28.1667,179.5 27.5,179.5C 31.1667,178.833 34.8333,178.167 38.5,177.5C 42.1726,179.318 46.1726,179.984 50.5,179.5C 50.5751,176.794 50.9084,174.127 51.5,171.5C 51.8039,170.85 52.1373,170.183 52.5,169.5C 49.9135,168.52 47.2469,168.187 44.5,168.5C 44.5,168.167 44.5,167.833 44.5,167.5C 47.8333,165.167 51.1667,162.833 54.5,160.5 Z"/></g>
<g><path style="opacity:1" fill="#aeaeb1" d="M 27.5,179.5 C 28.1667,179.5 28.5,179.833 28.5,180.5C 55.9919,181.833 83.8252,182.5 112,182.5C 140.175,182.5 168.008,181.833 195.5,180.5C 195.5,179.833 195.833,179.5 196.5,179.5C 196.5,180.833 196.5,182.167 196.5,183.5C 140.167,183.5 83.8333,183.5 27.5,183.5C 27.5,182.167 27.5,180.833 27.5,179.5 Z"/></g>
<g><path style="opacity:1" fill="#fefffe" d="M 28.5,180.5 C 84.1667,180.5 139.833,180.5 195.5,180.5C 168.008,181.833 140.175,182.5 112,182.5C 83.8252,182.5 55.9919,181.833 28.5,180.5 Z"/></g>
</svg>
