<?xml version="1.0" encoding="UTF-8"?>
<!DOCTYPE svg PUBLIC "-//W3C//DTD SVG 1.1//EN" "http://www.w3.org/Graphics/SVG/1.1/DTD/svg11.dtd">
<svg xmlns="http://www.w3.org/2000/svg" version="1.1" width="225px" height="225px" style="shape-rendering:geometricPrecision; text-rendering:geometricPrecision; image-rendering:optimizeQuality; fill-rule:evenodd; clip-rule:evenodd" xmlns:xlink="http://www.w3.org/1999/xlink">
<g><path style="opacity:1" fill="#fefefe" d="M -0.5,-0.5 C 74.5,-0.5 149.5,-0.5 224.5,-0.5C 224.5,74.5 224.5,149.5 224.5,224.5C 149.5,224.5 74.5,224.5 -0.5,224.5C -0.5,149.5 -0.5,74.5 -0.5,-0.5 Z"/></g>
<g><path style="opacity:1" fill="#f68da3" d="M 90.5,48.5 C 96.7918,50.7681 97.1251,53.7681 91.5,57.5C 86.5691,55.0222 86.2357,52.0222 90.5,48.5 Z"/></g>
<g><path style="opacity:1" fill="#7ca2fa" d="M 153.5,54.5 C 144.682,55.4933 135.682,55.8266 126.5,55.5C 128.965,54.5832 131.465,53.5832 134,52.5C 135.226,52.6448 136.393,52.9781 137.5,53.5C 140.364,49.9893 143.531,49.656 147,52.5C 147.873,52.2645 148.707,51.9312 149.5,51.5C 150.852,52.5244 152.185,53.5244 153.5,54.5 Z"/></g>
<g><path style="opacity:1" fill="#fef6f8" d="M 90.5,50.5 C 93.9563,51.5362 94.2896,53.2029 91.5,55.5C 89.2957,54.218 88.9624,52.5514 90.5,50.5 Z"/></g>
<g><path style="opacity:1" fill="#81a5fb" d="M 110.5,69.5 C 109.351,69.2089 108.684,68.3756 108.5,67C 109.54,64.8693 111.04,63.036 113,61.5C 113.669,54.0012 110.669,52.0012 104,55.5C 103.51,56.7932 103.343,58.1266 103.5,59.5C 101.5,59.5 99.5,59.5 97.5,59.5C 97.9003,57.6233 98.9003,56.1233 100.5,55C 99.3327,52.9291 99.9994,51.4291 102.5,50.5C 103.167,50.8333 103.833,51.1667 104.5,51.5C 105.631,50.2485 106.964,49.2485 108.5,48.5C 110.036,49.2485 111.369,50.2485 112.5,51.5C 113.451,50.6744 114.451,50.5078 115.5,51C 116.182,54.0489 117.515,56.7156 119.5,59C 118.783,60.531 117.783,61.8643 116.5,63C 117.667,65.0709 117.001,66.5709 114.5,67.5C 112.134,66.0163 110.801,66.683 110.5,69.5 Z"/></g>
<g><path style="opacity:1" fill="#f1a720" d="M 72.5,59.5 C 69.5,60.8333 66.5,60.8333 63.5,59.5C 63.5,57.1667 63.5,54.8333 63.5,52.5C 66.5,52.5 69.5,52.5 72.5,52.5C 72.5,54.8333 72.5,57.1667 72.5,59.5 Z"/></g>
<g><path style="opacity:1" fill="#ffeed4" d="M 69.5,54.5 C 70.5593,56.0699 70.0593,57.4032 68,58.5C 67.1667,57.6667 66.3333,56.8333 65.5,56C 67.366,57.0084 68.6993,56.5084 69.5,54.5 Z"/></g>
<g><path style="opacity:1" fill="#fa4f7b" d="M 43.5,61.5 C 40.5908,60.465 37.9241,60.465 35.5,61.5C 38.861,57.7282 42.5277,57.5615 46.5,61C 45.552,61.4828 44.552,61.6495 43.5,61.5 Z"/></g>
<g><path style="opacity:1" fill="#fc336e" d="M 43.5,61.5 C 43.6107,62.1174 43.944,62.6174 44.5,63C 42.6799,62.5241 41.0133,62.6907 39.5,63.5C 37.6214,63.6068 37.2881,63.1068 38.5,62C 40.1341,61.5065 41.8008,61.3398 43.5,61.5 Z"/></g>
<g><path style="opacity:1" fill="#fb5783" d="M 39.5,63.5 C 42.8678,64.0748 43.3678,65.7415 41,68.5C 39.513,67.7471 39.3463,66.9138 40.5,66C 38.3808,65.6582 38.0474,64.8249 39.5,63.5 Z"/></g>
<g><path style="opacity:1" fill="#e6edef" d="M 110.5,69.5 C 108.396,72.003 108.063,74.6697 109.5,77.5C 104.579,79.1915 99.7455,81.1915 95,83.5C 93.018,88.5718 93.1847,93.5718 95.5,98.5C 94.5,98.8333 93.8333,99.5 93.5,100.5C 79.496,100.667 65.496,100.5 51.5,100C 51,99.5 50.5,99 50,98.5C 49.7725,94.0829 49.2725,89.7496 48.5,85.5C 49.4345,84.4324 49.7678,83.099 49.5,81.5C 49.3337,74.825 49.5004,68.1583 50,61.5C 50.5,61 51,60.5 51.5,60C 55.4862,59.5012 59.4862,59.3345 63.5,59.5C 66.5,60.8333 69.5,60.8333 72.5,59.5C 80.8333,59.5 89.1667,59.5 97.5,59.5C 99.5,59.5 101.5,59.5 103.5,59.5C 103.343,58.1266 103.51,56.7932 104,55.5C 110.669,52.0012 113.669,54.0012 113,61.5C 111.04,63.036 109.54,64.8693 108.5,67C 108.684,68.3756 109.351,69.2089 110.5,69.5 Z"/></g>
<g><path style="opacity:1" fill="#7597e5" d="M 179.5,66.5 C 179.5,68.1667 179.5,69.8333 179.5,71.5C 176.5,71.5 173.5,71.5 170.5,71.5C 170.5,69.8333 170.5,68.1667 170.5,66.5C 173.5,66.5 176.5,66.5 179.5,66.5 Z"/></g>
<g><path style="opacity:1" fill="#f7fafb" d="M 142.5,88.5 C 143.562,86.9008 143.562,85.2341 142.5,83.5C 142.5,77.8333 142.5,72.1667 142.5,66.5C 151.167,66.5 159.833,66.5 168.5,66.5C 168.5,75.1667 168.5,83.8333 168.5,92.5C 159.833,92.5 151.167,92.5 142.5,92.5C 142.5,91.1667 142.5,89.8333 142.5,88.5 Z"/></g>
<g><path style="opacity:1" fill="#e1eaf1" d="M 153.5,54.5 C 154.043,54.56 154.376,54.8933 154.5,55.5C 150.541,56.3265 146.541,56.8265 142.5,57C 151.83,56.9115 161.163,56.9115 170.5,57C 172.314,59.4815 172.98,62.3148 172.5,65.5C 175.059,65.1984 177.393,65.5318 179.5,66.5C 176.5,66.5 173.5,66.5 170.5,66.5C 170.5,68.1667 170.5,69.8333 170.5,71.5C 173.5,71.5 176.5,71.5 179.5,71.5C 177.393,72.4682 175.059,72.8016 172.5,72.5C 172.5,81.1667 172.5,89.8333 172.5,98.5C 177.167,98.5 181.833,98.5 186.5,98.5C 186.793,102.437 186.46,106.27 185.5,110C 181.179,110.499 176.846,110.666 172.5,110.5C 172.5,112.167 172.5,113.833 172.5,115.5C 172.5,116.167 172.5,116.833 172.5,117.5C 172.703,119.39 172.037,120.89 170.5,122C 160.833,122.667 151.167,122.667 141.5,122C 140.584,121.626 139.75,121.126 139,120.5C 138.502,117.183 138.335,113.85 138.5,110.5C 133.456,110.827 128.456,110.494 123.5,109.5C 126.747,106.353 130.414,105.853 134.5,108C 132.965,108.496 131.465,108.33 130,107.5C 128.775,107.862 127.609,108.362 126.5,109C 130.486,109.499 134.486,109.666 138.5,109.5C 138.773,107.549 138.107,106.049 136.5,105C 138.414,100.142 139.081,94.9752 138.5,89.5C 136.265,89.7947 134.265,89.4614 132.5,88.5C 135.833,88.5 139.167,88.5 142.5,88.5C 142.5,89.8333 142.5,91.1667 142.5,92.5C 151.167,92.5 159.833,92.5 168.5,92.5C 168.5,83.8333 168.5,75.1667 168.5,66.5C 159.833,66.5 151.167,66.5 142.5,66.5C 142.5,72.1667 142.5,77.8333 142.5,83.5C 140.901,83.7678 139.568,83.4345 138.5,82.5C 138.334,74.4931 138.5,66.4931 139,58.5C 139.75,57.8742 140.584,57.3742 141.5,57C 136.316,56.8261 131.316,56.3261 126.5,55.5C 135.682,55.8266 144.682,55.4933 153.5,54.5 Z"/></g>
<g><path style="opacity:1" fill="#ffad1f" d="M 58.5,76.5 C 59.5,76.5 60.5,76.5 61.5,76.5C 61.7778,78.3464 61.1112,79.6798 59.5,80.5C 58.5713,79.3112 58.238,77.9778 58.5,76.5 Z"/></g>
<g><path style="opacity:1" fill="#271b18" d="M 119.5,94.5 C 118.732,95.2625 118.232,96.2625 118,97.5C 117.802,94.2979 116.969,91.2979 115.5,88.5C 109.972,90.2987 104.306,91.2987 98.5,91.5C 99.412,95.1306 99.5787,98.7973 99,102.5C 97.5952,101.269 96.4286,99.9361 95.5,98.5C 93.1847,93.5718 93.018,88.5718 95,83.5C 99.7455,81.1915 104.579,79.1915 109.5,77.5C 111.23,76.0243 112.563,76.3576 113.5,78.5C 115.045,79.4519 116.712,79.7852 118.5,79.5C 118.337,84.547 118.671,89.547 119.5,94.5 Z"/></g>
<g><path style="opacity:1" fill="#80a5fb" d="M 49.5,81.5 C 49.7678,83.099 49.4345,84.4324 48.5,85.5C 42.1579,85.6662 35.8246,85.4995 29.5,85C 32.0282,83.9084 34.5282,82.7417 37,81.5C 38.4651,82.3295 39.9651,82.4962 41.5,82C 44.0131,78.868 46.6798,78.7013 49.5,81.5 Z"/></g>
<g><path style="opacity:1" fill="#71d285" d="M 62.5,81.5 C 65.0949,82.4262 67.0949,84.0929 68.5,86.5C 69.5,85.8333 70.5,85.1667 71.5,84.5C 72.4742,86.7427 72.8076,89.076 72.5,91.5C 66.5,91.5 60.5,91.5 54.5,91.5C 54.3379,89.4727 54.5045,87.4727 55,85.5C 56.1332,87.2112 57.6332,87.7112 59.5,87C 60.6394,85.2196 61.6394,83.3863 62.5,81.5 Z"/></g>
<g><path style="opacity:1" fill="#f32d6d" d="M 138.5,82.5 C 139.568,83.4345 140.901,83.7678 142.5,83.5C 143.562,85.2341 143.562,86.9008 142.5,88.5C 139.167,88.5 135.833,88.5 132.5,88.5C 131.903,88.2648 131.57,87.7648 131.5,87C 132.682,83.6434 135.015,82.1434 138.5,82.5 Z"/></g>
<g><path style="opacity:1" fill="#eec2bb" d="M 119.5,94.5 C 121.011,95.9575 122.011,97.7908 122.5,100C 118.502,105.166 116.002,111 115,117.5C 113.519,123.248 110.852,123.915 107,119.5C 105.823,112.157 101.657,107.49 94.5,105.5C 93.6906,103.929 93.3573,102.262 93.5,100.5C 93.8333,99.5 94.5,98.8333 95.5,98.5C 96.4286,99.9361 97.5952,101.269 99,102.5C 99.5787,98.7973 99.412,95.1306 98.5,91.5C 104.306,91.2987 109.972,90.2987 115.5,88.5C 116.969,91.2979 117.802,94.2979 118,97.5C 118.232,96.2625 118.732,95.2625 119.5,94.5 Z"/></g>
<g><path style="opacity:1" fill="#e28fa7" d="M 169.5,100.5 C 174.64,99.5119 179.974,99.1786 185.5,99.5C 185.81,102.713 185.477,105.713 184.5,108.5C 184.5,105.833 184.5,103.167 184.5,100.5C 179.5,100.5 174.5,100.5 169.5,100.5 Z"/></g>
<g><path style="opacity:1" fill="#87a8fb" d="M 28.5,102.5 C 44.8367,102.333 61.1701,102.5 77.5,103C 78.3802,104.356 78.7135,105.856 78.5,107.5C 61.5,107.5 44.5,107.5 27.5,107.5C 27.366,105.708 27.6993,104.042 28.5,102.5 Z"/></g>
<g><path style="opacity:1" fill="#f72d6e" d="M 169.5,100.5 C 174.5,100.5 179.5,100.5 184.5,100.5C 184.5,103.167 184.5,105.833 184.5,108.5C 179.5,108.5 174.5,108.5 169.5,108.5C 169.5,105.833 169.5,103.167 169.5,100.5 Z"/></g>
<g><path style="opacity:1" fill="#fef1f3" d="M 175.5,101.5 C 179.94,102.787 180.273,104.453 176.5,106.5C 175.548,104.955 175.215,103.288 175.5,101.5 Z"/></g>
<g><path style="opacity:1" fill="#454148" d="M 72.5,135.5 C 68.7633,132.923 65.0966,132.923 61.5,135.5C 50.495,135.667 39.495,135.5 28.5,135C 27.5161,126.251 27.1828,117.418 27.5,108.5C 44.5,108.5 61.5,108.5 78.5,108.5C 78.6664,117.173 78.4998,125.84 78,134.5C 76.3005,135.406 74.4672,135.739 72.5,135.5 Z"/></g>
<g><path style="opacity:1" fill="#9f712a" d="M 49.5,114.5 C 53.8839,114.174 58.2172,114.508 62.5,115.5C 60.3333,115.833 58.1667,116.167 56,116.5C 53.3897,116.467 51.223,115.8 49.5,114.5 Z"/></g>
<g><path style="opacity:1" fill="#90affb" d="M 172.5,117.5 C 172.5,116.833 172.5,116.167 172.5,115.5C 176.023,114.376 179.356,114.876 182.5,117C 179.183,117.498 175.85,117.665 172.5,117.5 Z"/></g>
<g><path style="opacity:1" fill="#7da1f7" d="M 147.5,145.5 C 146.926,150.945 145.926,156.279 144.5,161.5C 146.265,162.461 148.265,162.795 150.5,162.5C 151.087,167.909 149.42,172.242 145.5,175.5C 138.833,175.5 132.167,175.5 125.5,175.5C 125.5,174.167 124.833,173.5 123.5,173.5C 124.167,172.5 124.833,171.5 125.5,170.5C 129.601,174.182 133.601,173.849 137.5,169.5C 136.769,165.891 135.436,162.558 133.5,159.5C 132.277,158.386 130.944,158.219 129.5,159C 128.627,160.045 127.627,160.878 126.5,161.5C 127.367,155.929 127.367,150.429 126.5,145C 110.592,144.176 94.7591,144.343 79,145.5C 78.8823,136.852 81.3823,129.019 86.5,122C 91.0481,119.873 95.7147,118.039 100.5,116.5C 101.728,120.241 103.062,123.908 104.5,127.5C 108.912,123.633 113.245,123.633 117.5,127.5C 119.094,124.015 119.76,120.348 119.5,116.5C 137.015,118.348 146.349,128.014 147.5,145.5 Z"/></g>
<g><path style="opacity:1" fill="#5e75af" d="M 43.5,122.5 C 47.226,122.177 50.8927,122.511 54.5,123.5C 52.6667,123.833 50.8333,124.167 49,124.5C 46.7047,124.453 44.8714,123.787 43.5,122.5 Z"/></g>
<g><path style="opacity:1" fill="#aa7622" d="M 56.5,122.5 C 58.604,122.201 60.604,122.534 62.5,123.5C 61.5,123.833 60.5,124.167 59.5,124.5C 57.9704,124.36 56.9704,123.693 56.5,122.5 Z"/></g>
<g><path style="opacity:1" fill="#34353f" d="M 183.5,156.5 C 184.029,152.808 183.029,149.642 180.5,147C 179.256,146.544 178.423,147.044 178,148.5C 177.506,150.134 177.34,151.801 177.5,153.5C 175.533,153.261 173.699,153.594 172,154.5C 171.503,152.19 171.337,149.857 171.5,147.5C 169.167,147.5 166.833,147.5 164.5,147.5C 164.5,152.167 164.5,156.833 164.5,161.5C 158.833,161.5 153.167,161.5 147.5,161.5C 147.66,159.801 147.494,158.134 147,156.5C 146.95,158.744 146.117,160.411 144.5,161.5C 145.926,156.279 146.926,150.945 147.5,145.5C 148.832,139.188 150.165,132.854 151.5,126.5C 164.167,126.5 176.833,126.5 189.5,126.5C 187.604,136.646 185.604,146.646 183.5,156.5 Z"/></g>
<g><path style="opacity:1" fill="#eb839a" d="M 36.5,141.5 C 38.8333,141.5 41.1667,141.5 43.5,141.5C 43.5,143.167 43.5,144.833 43.5,146.5C 43.5,156.167 43.5,165.833 43.5,175.5C 41.1667,175.5 38.8333,175.5 36.5,175.5C 37.8138,164.197 37.8138,152.863 36.5,141.5 Z"/></g>
<g><path style="opacity:1" fill="#f85181" d="M 72.5,135.5 C 75.7169,142.074 73.7169,146.407 66.5,148.5C 59.505,146.162 57.8383,141.828 61.5,135.5C 65.0966,132.923 68.7633,132.923 72.5,135.5 Z"/></g>
<g><path style="opacity:1" fill="#fec7d5" d="M 67.5,136.5 C 68.3327,139.218 67.8327,141.885 66,144.5C 65.8552,141.739 66.3552,139.073 67.5,136.5 Z"/></g>
<g><path style="opacity:1" fill="#ffdce2" d="M 69.5,139.5 C 71.7602,140.238 71.9269,141.238 70,142.5C 69.5172,141.552 69.3505,140.552 69.5,139.5 Z"/></g>
<g><path style="opacity:1" fill="#f8b0be" d="M 36.5,141.5 C 37.8138,152.863 37.8138,164.197 36.5,175.5C 36.1667,175.5 35.8333,175.5 35.5,175.5C 35.1719,163.988 35.5052,152.654 36.5,141.5 Z"/></g>
<g><path style="opacity:1" fill="#5a32b1" d="M 54.5,144.5 C 54.5,154.833 54.5,165.167 54.5,175.5C 52.5,175.5 50.5,175.5 48.5,175.5C 48.5,165.833 48.5,156.167 48.5,146.5C 49.9179,144.692 51.9179,144.025 54.5,144.5 Z"/></g>
<g><path style="opacity:1" fill="#5fbb9f" d="M 183.5,156.5 C 183.5,158.5 183.5,160.5 183.5,162.5C 182.833,162.5 182.167,162.5 181.5,162.5C 181.5,161.833 181.167,161.5 180.5,161.5C 179.773,159.046 178.773,156.713 177.5,154.5C 177.5,154.167 177.5,153.833 177.5,153.5C 177.34,151.801 177.506,150.134 178,148.5C 178.423,147.044 179.256,146.544 180.5,147C 183.029,149.642 184.029,152.808 183.5,156.5 Z"/></g>
<g><path style="opacity:1" fill="#eead34" d="M 43.5,146.5 C 45.1667,146.5 46.8333,146.5 48.5,146.5C 48.5,156.167 48.5,165.833 48.5,175.5C 46.8333,175.5 45.1667,175.5 43.5,175.5C 43.5,165.833 43.5,156.167 43.5,146.5 Z"/></g>
<g><path style="opacity:1" fill="#8f9396" d="M 177.5,153.5 C 177.5,153.833 177.5,154.167 177.5,154.5C 172.677,154.327 170.677,156.661 171.5,161.5C 174.71,161.249 177.71,161.249 180.5,161.5C 181.167,161.5 181.5,161.833 181.5,162.5C 180.167,162.5 178.833,162.5 177.5,162.5C 175.5,162.5 173.5,162.5 171.5,162.5C 171.5,166.167 171.5,169.833 171.5,173.5C 169.5,173.5 167.5,173.5 165.5,173.5C 165.5,169.833 165.5,166.167 165.5,162.5C 160.5,162.5 155.5,162.5 150.5,162.5C 148.265,162.795 146.265,162.461 144.5,161.5C 146.117,160.411 146.95,158.744 147,156.5C 147.494,158.134 147.66,159.801 147.5,161.5C 153.167,161.5 158.833,161.5 164.5,161.5C 164.5,156.833 164.5,152.167 164.5,147.5C 166.833,147.5 169.167,147.5 171.5,147.5C 171.337,149.857 171.503,152.19 172,154.5C 173.699,153.594 175.533,153.261 177.5,153.5 Z"/></g>
<g><path style="opacity:1" fill="#5ec1a3" d="M 188.5,162.5 C 187.167,162.5 185.833,162.5 184.5,162.5C 184.634,156.559 187.467,152.559 193,150.5C 194.621,150.725 195.788,151.558 196.5,153C 193.829,154.743 190.996,156.243 188,157.5C 185.755,161.383 186.255,162.05 189.5,159.5C 189.833,159.833 190.167,160.167 190.5,160.5C 189.757,161.182 189.091,161.849 188.5,162.5 Z"/></g>
<g><path style="opacity:1" fill="#7fa1f6" d="M 82.5,173.5 C 81.8333,173.5 81.5,173.833 81.5,174.5C 81.1667,174.5 80.8333,174.5 80.5,174.5C 75.6505,174.481 73.3172,171.981 73.5,167C 74.9201,160.152 76.4201,153.319 78,146.5C 79.2327,155.625 80.7327,164.625 82.5,173.5 Z"/></g>
<g><path style="opacity:1" fill="#393a44" d="M 177.5,154.5 C 178.773,156.713 179.773,159.046 180.5,161.5C 177.71,161.249 174.71,161.249 171.5,161.5C 170.677,156.661 172.677,154.327 177.5,154.5 Z"/></g>
<g><path style="opacity:1" fill="#f8f9f9" d="M 150.5,162.5 C 155.5,162.5 160.5,162.5 165.5,162.5C 165.5,166.167 165.5,169.833 165.5,173.5C 161.029,172.911 157.029,173.577 153.5,175.5C 150.833,175.5 148.167,175.5 145.5,175.5C 149.42,172.242 151.087,167.909 150.5,162.5 Z"/></g>
<g><path style="opacity:1" fill="#f8f7f8" d="M 177.5,162.5 C 178.91,165.95 179.576,169.616 179.5,173.5C 176.833,173.5 174.167,173.5 171.5,173.5C 171.5,169.833 171.5,166.167 171.5,162.5C 173.5,162.5 175.5,162.5 177.5,162.5 Z"/></g>
<g><path style="opacity:1" fill="#e1b7b4" d="M 125.5,170.5 C 125.368,167.43 125.701,164.43 126.5,161.5C 127.627,160.878 128.627,160.045 129.5,159C 130.944,158.219 132.277,158.386 133.5,159.5C 135.436,162.558 136.769,165.891 137.5,169.5C 133.601,173.849 129.601,174.182 125.5,170.5 Z"/></g>
<g><path style="opacity:1" fill="#e07f94" d="M 177.5,162.5 C 178.833,162.5 180.167,162.5 181.5,162.5C 182.167,162.5 182.833,162.5 183.5,162.5C 183.833,162.5 184.167,162.5 184.5,162.5C 185.833,162.5 187.167,162.5 188.5,162.5C 189.5,162.5 190.5,162.5 191.5,162.5C 189.942,166.608 189.276,170.941 189.5,175.5C 186.167,175.5 182.833,175.5 179.5,175.5C 179.5,174.833 179.5,174.167 179.5,173.5C 179.576,169.616 178.91,165.95 177.5,162.5 Z"/></g>
<g><path style="opacity:1" fill="#252633" d="M 165.5,173.5 C 167.5,173.5 169.5,173.5 171.5,173.5C 174.167,173.5 176.833,173.5 179.5,173.5C 179.5,174.167 179.5,174.833 179.5,175.5C 170.833,175.5 162.167,175.5 153.5,175.5C 157.029,173.577 161.029,172.911 165.5,173.5 Z"/></g>
<g><path style="opacity:1" fill="#21222e" d="M 82.5,173.5 C 96.1667,173.5 109.833,173.5 123.5,173.5C 124.833,173.5 125.5,174.167 125.5,175.5C 110.657,175.829 95.9905,175.496 81.5,174.5C 81.5,173.833 81.8333,173.5 82.5,173.5 Z"/></g>
<g><path style="opacity:1" fill="#b4b2bb" d="M 54.5,144.5 C 55.4942,154.653 55.8276,164.986 55.5,175.5C 64.0168,175.826 72.3501,175.493 80.5,174.5C 80.8333,174.5 81.1667,174.5 81.5,174.5C 95.9905,175.496 110.657,175.829 125.5,175.5C 132.167,175.5 138.833,175.5 145.5,175.5C 148.167,175.5 150.833,175.5 153.5,175.5C 162.167,175.5 170.833,175.5 179.5,175.5C 182.833,175.5 186.167,175.5 189.5,175.5C 137.501,176.83 86.1677,176.83 35.5,175.5C 35.8333,175.5 36.1667,175.5 36.5,175.5C 38.8333,175.5 41.1667,175.5 43.5,175.5C 45.1667,175.5 46.8333,175.5 48.5,175.5C 50.5,175.5 52.5,175.5 54.5,175.5C 54.5,165.167 54.5,154.833 54.5,144.5 Z"/></g>
</svg>
